<svg xmlns="http://www.w3.org/2000/svg" style="display:none">
    <symbol id="conversations" xmlns="http://www.w3.org/2000/svg"  viewBox="0 0 20 20"><path fill="currentColor" d="M17 11v3l-3-3H8a2 2 0 0 1-2-2V2c0-1.1.9-2 2-2h10a2 2 0 0 1 2 2v7a2 2 0 0 1-2 2zm-3 2v2a2 2 0 0 1-2 2H6l-3 3v-3H2a2 2 0 0 1-2-2V8c0-1.1.9-2 2-2h2v3a4 4 0 0 0 4 4z"/></symbol>
    <symbol id="knowledge" xmlns="http://www.w3.org/2000/svg" viewBox="0 0 24 24"><path fill="currentColor" d="M21 5c-1.11-.35-2.33-.5-3.5-.5c-1.95 0-4.05.4-5.5 1.5c-1.45-1.1-3.55-1.5-5.5-1.5S2.45 4.9 1 6v14.65c0 .25.25.5.5.5c.1 0 .15-.05.25-.05C3.1 20.45 5.05 20 6.5 20c1.95 0 4.05.4 5.5 1.5c1.35-.85 3.8-1.5 5.5-1.5c1.65 0 3.35.3 4.75 1.05c.1.05.15.05.25.05c.25 0 .5-.25.5-.5V6c-.6-.45-1.25-.75-2-1m0 13.5c-1.1-.35-2.3-.5-3.5-.5c-1.7 0-4.15.65-5.5 1.5V8c1.35-.85 3.8-1.5 5.5-1.5c1.2 0 2.4.15 3.5.5z"/><path fill="currentColor" d="M17.5 10.5c.88 0 1.73.09 2.5.26V9.24c-.79-.15-1.64-.24-2.5-.24c-1.7 0-3.24.29-4.5.83v1.66c1.13-.64 2.7-.99 4.5-.99M13 12.49v1.66c1.13-.64 2.7-.99 4.5-.99c.88 0 1.73.09 2.5.26V11.9c-.79-.15-1.64-.24-2.5-.24c-1.7 0-3.24.3-4.5.83m4.5 1.84c-1.7 0-3.24.29-4.5.83v1.66c1.13-.64 2.7-.99 4.5-.99c.88 0 1.73.09 2.5.26v-1.52c-.79-.16-1.64-.24-2.5-.24"/></symbol>
    <symbol id="admin" xmlns="http://www.w3.org/2000/svg"  viewBox="0 0 36 36"><circle cx="14.67" cy="8.3" r="6" fill="currentColor" class="clr-i-solid clr-i-solid-path-1"/><path fill="currentColor" d="M16.44 31.82a2.15 2.15 0 0 1-.38-2.55l.53-1l-1.09-.33a2.14 2.14 0 0 1-1.5-2.1v-2.05a2.16 2.16 0 0 1 1.53-2.07l1.09-.33l-.52-1a2.17 2.17 0 0 1 .35-2.52a19 19 0 0 0-2.32-.16A15.58 15.58 0 0 0 2 23.07v7.75a1 1 0 0 0 1 1z" class="clr-i-solid clr-i-solid-path-2"/><path fill="currentColor" d="m33.7 23.46l-2-.6a6.7 6.7 0 0 0-.58-1.42l1-1.86a.35.35 0 0 0-.07-.43l-1.45-1.46a.38.38 0 0 0-.43-.07l-1.85 1a7.7 7.7 0 0 0-1.43-.6l-.61-2a.38.38 0 0 0-.36-.25h-2.08a.38.38 0 0 0-.35.26l-.6 2a7 7 0 0 0-1.45.61l-1.81-1a.38.38 0 0 0-.44.06l-1.47 1.44a.37.37 0 0 0-.07.44l1 1.82a7.2 7.2 0 0 0-.65 1.43l-2 .61a.36.36 0 0 0-.26.35v2.05a.36.36 0 0 0 .26.35l2 .61a7.3 7.3 0 0 0 .6 1.41l-1 1.9a.37.37 0 0 0 .07.44L19.16 32a.38.38 0 0 0 .44.06l1.87-1a7 7 0 0 0 1.4.57l.6 2.05a.38.38 0 0 0 .36.26h2.05a.38.38 0 0 0 .35-.26l.6-2.05a6.7 6.7 0 0 0 1.38-.57l1.89 1a.38.38 0 0 0 .44-.06L32 30.55a.38.38 0 0 0 .06-.44l-1-1.88a7 7 0 0 0 .57-1.38l2-.61a.39.39 0 0 0 .27-.35v-2.07a.4.4 0 0 0-.2-.36m-8.83 4.72a3.34 3.34 0 1 1 3.33-3.34a3.34 3.34 0 0 1-3.33 3.34" class="clr-i-solid clr-i-solid-path-3"/><path fill="none" d="M0 0h36v36H0z"/></symbol>
    <symbol id="bookmark" xmlns="http://www.w3.org/2000/svg"  viewBox="0 0 20 20"><path fill="gold" d="M14 2v17l-4-4l-4 4V2c0-.553.585-1.02 1-1h6c.689-.02 1 .447 1 1"/></symbol>
    <symbol id="chev-down" xmlns="http://www.w3.org/2000/svg"  viewBox="0 0 24 24"><path fill="currentColor" fill-rule="evenodd" d="M16.884 9.116a1.25 1.25 0 0 1 0 1.768L12 15.768l-4.884-4.884a1.25 1.25 0 0 1 1.768-1.768L12 12.232l3.116-3.116a1.25 1.25 0 0 1 1.768 0" clip-rule="evenodd"/></symbol>
    <symbol id="dollar" xmlns="http://www.w3.org/2000/svg"  viewBox="0 0 512 512"><path fill="#fdcd01" d="M320 96H192l-47.4-71.1c-7.1-10.7.5-24.9 13.3-24.9h196.2c12.8 0 20.4 14.2 13.3 24.9zm-128 32h128c3.8 2.5 8.1 5.3 13 8.4c56.7 36.3 179 114.5 179 279.6c0 53-43 96-96 96H96c-53 0-96-43-96-96c0-165.1 122.3-243.3 179-279.6c4.8-3.1 9.2-5.9 13-8.4m84 88c0-11-9-20-20-20s-20 9-20 20v14c-7.6 1.7-15.2 4.4-22.2 8.5c-13.9 8.3-25.9 22.8-25.8 43.9c.1 20.3 12 33.1 24.7 40.7c11 6.6 24.7 10.8 35.6 14l1.7.5c12.6 3.8 21.8 6.8 28 10.7c5.1 3.2 5.8 5.4 5.9 8.2c.1 5-1.8 8-5.9 10.5c-5 3.1-12.9 5-21.4 4.7c-11.1-.4-21.5-3.9-35.1-8.5q-3.45-1.2-7.2-2.4c-10.5-3.5-21.8 2.2-25.3 12.6s2.2 21.8 12.6 25.3c1.9.6 4 1.3 6.1 2.1c8.3 2.9 17.9 6.2 28.2 8.4v14.6c0 11 9 20 20 20s20-9 20-20V410c8-1.7 16-4.5 23.2-9c14.3-8.9 25.1-24.1 24.8-45c-.3-20.3-11.7-33.4-24.6-41.6c-11.5-7.2-25.9-11.6-37.1-15l-.7-.2c-12.8-3.9-21.9-6.7-28.3-10.5c-5.2-3.1-5.3-4.9-5.3-6.7c0-3.7 1.4-6.5 6.2-9.3c5.4-3.2 13.6-5.1 21.5-5c9.6.1 20.2 2.2 31.2 5.2c10.7 2.8 21.6-3.5 24.5-14.2s-3.5-21.6-14.2-24.5c-6.5-1.7-13.7-3.4-21.1-4.7v-13.9z"/></symbol>
    <symbol id="alert" xmlns="http://www.w3.org/2000/svg"  viewBox="0 0 1024 1024"><path fill="#fd0101" d="M512 244c176.18 0 319 142.82 319 319v233a32 32 0 0 1-32 32H225a32 32 0 0 1-32-32V563c0-176.18 142.82-319 319-319M484 68h56a8 8 0 0 1 8 8v96a8 8 0 0 1-8 8h-56a8 8 0 0 1-8-8V76a8 8 0 0 1 8-8M177.25 191.66a8 8 0 0 1 11.32 0l67.88 67.88a8 8 0 0 1 0 11.31l-39.6 39.6a8 8 0 0 1-11.31 0l-67.88-67.88a8 8 0 0 1 0-11.31l39.6-39.6zm669.6 0l39.6 39.6a8 8 0 0 1 0 11.3l-67.88 67.9a8 8 0 0 1-11.32 0l-39.6-39.6a8 8 0 0 1 0-11.32l67.89-67.88a8 8 0 0 1 11.31 0M192 892h640a32 32 0 0 1 32 32v24a8 8 0 0 1-8 8H168a8 8 0 0 1-8-8v-24a32 32 0 0 1 32-32m148-317v253h64V575z"/></symbol>
    <symbol id="customer" xmlns="http://www.w3.org/2000/svg"  viewBox="0 0 512 512"><path fill="currentColor" d="M256 288c79.5 0 144-64.5 144-144S335.5 0 256 0S112 64.5 112 144s64.5 144 144 144m128 32h-55.1c-22.2 10.2-46.9 16-72.9 16s-50.6-5.8-72.9-16H128C57.3 320 0 377.3 0 448v16c0 26.5 21.5 48 48 48h416c26.5 0 48-21.5 48-48v-16c0-70.7-57.3-128-128-128"/></symbol>
    <symbol id="delete" xmlns="http://www.w3.org/2000/svg" viewBox="0 0 24 24"><path fill="red" d="M9,3V4H4V6H5V19A2,2 0 0,0 7,21H17A2,2 0 0,0 19,19V6H20V4H15V3H9M7,6H17V19H7V6M9,8V17H11V8H9M13,8V17H15V8H13Z" /></symbol>
    <symbol id="escalated" xmlns="http://www.w3.org/2000/svg" viewBox="0 0 12 12"><circle cx="6" cy="6" r="6" fill="#f00"/></symbol>
    <symbol id="play"  xmlns="http://www.w3.org/2000/svg"  viewBox="0 0 16 16"><path fill="currentColor" fill-rule="evenodd" d="M8 1a7 7 0 1 0 0 14A7 7 0 0 0 8 1m3.901 7L6 4.066v7.868z" clip-rule="evenodd"/></symbol>
    <symbol id="menu" xmlns="http://www.w3.org/2000/svg" viewBox="0 0 16 16"><g fill="none" stroke="currentColor" stroke-linecap="round" stroke-linejoin="round" stroke-width="1.5"><circle cx="8" cy="2.5" r=".75"/><circle cx="8" cy="8" r=".75"/><circle cx="8" cy="13.5" r=".75"/></g></symbol>
    <symbol id="mcp" xmlns="http://www.w3.org/2000/svg"  viewBox="0 0 24 24"><g fill="none"><path d="m12.594 23.258l-.012.002l-.071.035l-.02.004l-.014-.004l-.071-.036q-.016-.004-.024.006l-.004.01l-.017.428l.005.02l.01.013l.104.074l.015.004l.012-.004l.104-.074l.012-.016l.004-.017l-.017-.427q-.004-.016-.016-.018m.264-.113l-.014.002l-.184.093l-.01.01l-.003.011l.018.43l.005.012l.008.008l.201.092q.019.005.029-.008l.004-.014l-.034-.614q-.005-.019-.02-.022m-.715.002a.02.02 0 0 0-.027.006l-.006.014l-.034.614q.001.018.017.024l.015-.002l.201-.093l.01-.008l.003-.011l.018-.43l-.003-.012l-.01-.01z"/><path fill="currentColor" d="M8.758 2.808a4.998 4.998 0 0 1 8.53 3.486a5 5 0 0 1 3.491 8.534l-4.95 4.95l.353.354a1.5 1.5 0 0 1-2.121 2.121l-.707-.707a2.5 2.5 0 0 1 0-3.536l5.303-5.303a2.001 2.001 0 0 0-2.829-2.829l-3.888 3.89a1.5 1.5 0 0 1-1.557.353a1.5 1.5 0 0 1-.57-2.477l3.891-3.89A1.998 1.998 0 0 0 10.88 4.93l-6.013 6.013a1.5 1.5 0 0 1-2.12-2.122zm2.475 2.474a1.5 1.5 0 0 1 2.12 2.122l-3.889 3.89a2 2 0 0 0 2.83 2.827l3.888-3.89a1.5 1.5 0 0 1 2.12 2.123l-3.888 3.888a5 5 0 1 1-7.071-7.07z"/></g></symbol>
    <symbol id="pause"  xmlns="http://www.w3.org/2000/svg"  viewBox="0 0 24 24"><path fill="currentColor" d="M12 2C6.477 2 2 6.477 2 12s4.477 10 10 10s10-4.477 10-10S17.523 2 12 2m-1 14H9V8h2zm4 0h-2V8h2z"/></symbol>
    <symbol id="plus-box" xmlns="http://www.w3.org/2000/svg" viewBox="0 0 24 24"><title>plus-box</title><path d="M17,13H13V17H11V13H7V11H11V7H13V11H17M19,3H5C3.89,3 3,3.89 3,5V19A2,2 0 0,0 5,21H19A2,2 0 0,0 21,19V5C21,3.89 20.1,3 19,3Z" /></symbol>
    <symbol id="question" xmlns="http://www.w3.org/2000/svg"  viewBox="0 0 24 24"><path fill="#f00" d="M10 19h3v3h-3zm2-17c5.35.22 7.68 5.62 4.5 9.67c-.83 1-2.17 1.66-2.83 2.5C13 15 13 16 13 17h-3c0-1.67 0-3.08.67-4.08c.66-1 2-1.59 2.83-2.25C15.92 8.43 15.32 5.26 12 5a3 3 0 0 0-3 3H6a6 6 0 0 1 6-6"/></symbol>
    <symbol id="mic-on" xmlns="http://www.w3.org/2000/svg" viewBox="0 0 24 24"><path fill="red" d="M12 15a4 4 0 0 0 4-4V6a4 4 0 0 0-8 0v5a4 4 0 0 0 4 4"/><path fill="red" d="M19 11a1 1 0 0 0-2 0a5 5 0 0 1-10 0a1 1 0 0 0-2 0a7 7 0 0 0 6 6.92V20H8.89a.89.89 0 0 0-.89.89v.22a.89.89 0 0 0 .89.89h6.22a.89.89 0 0 0 .89-.89v-.22a.89.89 0 0 0-.89-.89H13v-2.08A7 7 0 0 0 19 11"/></symbol>
    <symbol id="minus-box" xmlns="http://www.w3.org/2000/svg" viewBox="0 0 24 24"><title>minus-box</title><path d="M17,13H7V11H17M19,3H5C3.89,3 3,3.89 3,5V19A2,2 0 0,0 5,21H19A2,2 0 0,0 21,19V5C21,3.89 20.1,3 19,3Z" /></symbol>
    <symbol id="run" xmlns="http://www.w3.org/2000/svg"  viewBox="0 0 16 16">
        <path fill="currentColor"
        d="M3.44 13.557a1.5 1.5 0 0 0 1.795.244l8-4.5a1.5 1.5 0 0 0 0-2.61l-8.01-4.507A1.52 1.52 0 0 0 3 3.496v9c0 .398.158.78.44 1.06m.706-10.414a.5.5 0 0 1 .599-.082l8 4.5a.5.5 0 0 1 0 .87l-7.99 4.494A.492.492 0 0 1 4 12.496v-9a.5.5 0 0 1 .146-.353m6.614 8.693l1.22-.68q.018.125.02.25a1.51 1.51 0 0 1-.76 1.31l-5.08 2.86a3.6 3.6 0 0 1-1.66.42a3 3 0 0 1-.91-.13a3.33 3.33 0 0 1-1.59-.93a3.46 3.46 0 0 1-1-2.44v-5.59a1.48 1.48 0 0 1 1-1.39v6.98a2.513 2.513 0 0 0 3.7 2.19l5.05-2.84a.01.01 0 0 0 .01-.01" />
    </symbol>
    <symbol id="speak" xmlns="http://www.w3.org/2000/svg" viewBox="0 0 24 24"><path fill="currentColor" d="M9 5a4 4 0 0 1 4 4a4 4 0 0 1-4 4a4 4 0 0 1-4-4a4 4 0 0 1 4-4m0 10c2.67 0 8 1.34 8 4v2H1v-2c0-2.66 5.33-4 8-4m7.76-9.64c2.02 2.2 2.02 5.25 0 7.27l-1.68-1.69c.84-1.18.84-2.71 0-3.89zM20.07 2c3.93 4.05 3.9 10.11 0 14l-1.63-1.63c2.77-3.18 2.77-7.72 0-10.74z"/></symbol>
    <symbol id="send" xmlns="http://www.w3.org/2000/svg" viewBox="0 0 24 24"><path fill="currentColor" d="M20.04 2.323c1.016-.355 1.992.621 1.637 1.637l-5.925 16.93c-.385 1.098-1.915 1.16-2.387.097l-2.859-6.432l4.024-4.025a.75.75 0 0 0-1.06-1.06l-4.025 4.024l-6.432-2.859c-1.063-.473-1-2.002.097-2.387z"/></symbol>
    <symbol id="tools" xmlns="http://www.w3.org/2000/svg"  viewBox="0 0 24 24"><path fill="currentColor" d="m21.71 20.29l-1.42 1.42a1 1 0 0 1-1.41 0L7 9.85A3.8 3.8 0 0 1 6 10a4 4 0 0 1-3.78-5.3l2.54 2.54l.53-.53l1.42-1.42l.53-.53L4.7 2.22A4 4 0 0 1 10 6a3.8 3.8 0 0 1-.15 1l11.86 11.88a1 1 0 0 1 0 1.41M2.29 18.88a1 1 0 0 0 0 1.41l1.42 1.42a1 1 0 0 0 1.41 0l5.47-5.46l-2.83-2.83M20 2l-4 2v2l-2.17 2.17l2 2L18 8h2l2-4Z"/></symbol>
    <symbol id="upload" xmlns="http://www.w3.org/2000/svg" viewBox="0 0 20 20"><path fill="currentColor" d="M14.8 9c.1-.3.2-.6.2-1c0-2.2-1.8-4-4-4c-1.5 0-2.9.9-3.5 2.2c-.3-.1-.7-.2-1-.2C5.1 6 4 7.1 4 8.5c0 .2 0 .4.1.5c-1.8.3-3.1 1.7-3.1 3.5C1 14.4 2.6 16 4.5 16H8v-3H5l4.5-4.5L14 13h-3v3h3.5c1.9 0 3.5-1.6 3.5-3.5c0-1.8-1.4-3.3-3.2-3.5"/></symbol>
    <symbol id="webhook" xmlns="http://www.w3.org/2000/svg" viewBox="0 0 24 24"><path fill="currentColor" d="M7 21q-2.075 0-3.537-1.463T2 16q0-1.825 1.138-3.187T6 11.1v2.075q-.875.3-1.437 1.075T4 16q0 1.25.875 2.125T7 19t2.125-.875T10 16v-1h5.875q.2-.225.488-.363T17 14.5q.625 0 1.063.438T18.5 16t-.437 1.063T17 17.5q-.35 0-.638-.137T15.876 17H11.9q-.35 1.725-1.713 2.863T7 21m10 0q-1.4 0-2.537-.687T12.675 18.5h2.675q.35.25.775.375T17 19q1.25 0 2.125-.875T20 16t-.875-2.125T17 13q-.5 0-.925.138t-.8.412l-3.05-5.075q-.525-.1-.875-.5T11 7q0-.625.438-1.062T12.5 5.5t1.063.438T14 7v.213q0 .087-.05.212l2.175 3.65q.2-.05.425-.062T17 11q2.075 0 3.538 1.463T22 16t-1.463 3.538T17 21M7 17.5q-.625 0-1.062-.437T5.5 16q0-.55.35-.95t.85-.525l2.35-3.9q-.725-.675-1.138-1.612T7.5 7q0-2.075 1.463-3.537T12.5 2t3.538 1.463T17.5 7h-2q0-1.25-.875-2.125T12.5 4t-2.125.875T9.5 7q0 1.075.65 1.888t1.65 1.037L8.425 15.55q.05.125.063.225T8.5 16q0 .625-.437 1.063T7 17.5"/></symbol>
    <symbol id="agent" xmlns="http://www.w3.org/2000/svg" viewBox="0 0 48 48"><path fill="currentColor" fill-rule="evenodd" d="M13 19.5a8 8 0 0 1 4.023-6.943Q17.002 11.238 17 9.5c0-2.551.044-4.405.09-5.645c.043-1.2.854-2.187 2.05-2.285c.51-.041 1.128-.07 1.86-.07s1.35.029 1.86.07c1.196.098 2.007 1.085 2.05 2.285c.046 1.24.09 3.094.09 5.645q-.001 1.738-.023 3.057A8 8 0 1 1 13 19.5m14.995-8.49Q28 10.3 28 9.5c0-2.585-.044-4.476-.091-5.755a5.6 5.6 0 0 0-.183-1.224c7.348 2.504 12.663 9.335 12.829 17.423l3.88 5.41c.693.967.62 2.38-.505 3.069c-.853.52-2.099 1.127-3.771 1.57l-.576 6.83a3.5 3.5 0 0 1-3.917 3.18l-2.52-.312v2.917c0 1.507-.981 2.87-2.519 3.155c-1.851.345-4.884.737-9.098.737s-7.246-.392-9.098-.737c-1.537-.286-2.52-1.648-2.52-3.155V35.25C5.407 31.808 2.5 26.407 2.5 20.333c0-7.824 4.82-14.53 11.677-17.375q-.07.39-.086.787C14.044 5.024 14 6.915 14 9.5q0 .8.005 1.51A10.98 10.98 0 0 0 10 19.5c0 5.866 4.592 10.66 10.377 10.983C23.645 33.517 28.4 35.5 33 35.5a1.5 1.5 0 0 0 0-3c-2.922 0-5.969-.983-8.462-2.581C28.878 28.446 32 24.337 32 19.5a10.98 10.98 0 0 0-4.005-8.49" clip-rule="evenodd"/></symbol>
</svg>

